<svg xmlns="http://www.w3.org/2000/svg" xmlns:xlink="http://www.w3.org/1999/xlink" viewBox="0 0 1000 700" width="1000" height="700">
<defs><pattern id="grid" width="36" height="36" patternUnits="userSpaceOnUse"><path d="M36 0H0V36" fill="none" stroke="#F4E3C8" stroke-opacity=".07"/></pattern><filter id="sh" x="-30%" y="-30%" width="160%" height="170%"><feDropShadow dx="0" dy="4" stdDeviation="4" flood-color="#000" flood-opacity=".6"/></filter><filter id="b3" x="-50%" y="-50%" width="200%" height="200%"><feGaussianBlur stdDeviation="16"/></filter><g id="mq" fill="none" stroke="#F4E3C8" stroke-width="2" stroke-linecap="round" stroke-linejoin="round"><circle cx="100" cy="30" r="9"/><path d="M91 40 L109 40 L113 58 L87 58 Z"/><path d="M70 62 C86 54 114 54 130 62 C150 74 152 112 142 150 C137 176 136 192 142 216 C148 246 146 276 134 294 L66 294 C54 276 52 246 58 216 C64 192 63 176 58 150 C48 112 50 74 70 62 Z"/><g stroke="#D7263D" stroke-dasharray="4 4" stroke-width="1.6"><path d="M100 58 L100 294"/><path d="M84 58 C74 120 80 200 72 294"/><path d="M116 58 C126 120 120 200 128 294"/><path d="M60 205 Q100 224 140 205"/><path d="M62 150 Q100 168 138 150"/></g><rect x="97" y="294" width="6" height="86" rx="2"/><path d="M100 380 L58 402 M100 380 L142 402 M100 380 L100 402"/><circle cx="58" cy="404" r="3"/><circle cx="142" cy="404" r="3"/><circle cx="100" cy="404" r="3"/></g><linearGradient id="spot" x1="0" y1="0" x2="0" y2="1"><stop offset="0" stop-color="#F4E3C8" stop-opacity=".30"/><stop offset="1" stop-color="#F4E3C8" stop-opacity="0"/></linearGradient><linearGradient id="dress" x1="0" y1="0" x2="1" y2="1"><stop offset="0" stop-color="#5a0f1b"/><stop offset="1" stop-color="#0B0B0F"/></linearGradient><clipPath id="bodyclip"><path d="M70 62 C86 54 114 54 130 62 C150 74 152 112 142 150 C137 176 136 192 142 216 C148 246 146 276 134 294 L66 294 C54 276 52 246 58 216 C64 192 63 176 58 150 C48 112 50 74 70 62 Z"/></clipPath></defs>
<rect width="1000" height="700" rx="24" fill="#0B0B0F"/><rect width="1000" height="700" rx="24" fill="url(#grid)"/><polygon points="470,0 530,0 790,660 210,660" fill="url(#spot)"><animate attributeName="opacity" values=".8;1;.8" dur="5s" repeatCount="indefinite"/></polygon><ellipse cx="500" cy="648" rx="230" ry="26" fill="#D7263D" opacity=".55" filter="url(#b3)"/><text x="40" y="56" font-family="Georgia, 'Times New Roman', serif" font-style="italic" font-size="34" fill="#F4E3C8">skills, tailored to fit</text><text x="40" y="82" font-family="'Courier New', Courier, monospace" font-size="13" fill="#FFD23F">FITTING ROOM 1 / dress made of code</text><g transform="translate(350,60) scale(1.45)"><path d="M70 62 C86 54 114 54 130 62 C150 74 152 112 142 150 C137 176 136 192 142 216 C148 246 146 276 134 294 L66 294 C54 276 52 246 58 216 C64 192 63 176 58 150 C48 112 50 74 70 62 Z" fill="url(#dress)"/><g clip-path="url(#bodyclip)"><g><text x="66" y="72" font-family="'Courier New', Courier, monospace" font-size="10.5" fill="#F4E3C8">import art</text><text x="66" y="88" font-family="'Courier New', Courier, monospace" font-size="10.5" fill="#FFD23F">clean(data)</text><text x="66" y="104" font-family="'Courier New', Courier, monospace" font-size="10.5" fill="#2DE2E6">SELECT *</text><text x="66" y="120" font-family="'Courier New', Courier, monospace" font-size="10.5" fill="#FF8FA3">FROM data;</text><text x="66" y="136" font-family="'Courier New', Courier, monospace" font-size="10.5" fill="#F4E3C8">model.fit()</text><text x="66" y="152" font-family="'Courier New', Courier, monospace" font-size="10.5" fill="#FFD23F">prec = .846</text><text x="66" y="168" font-family="'Courier New', Courier, monospace" font-size="10.5" fill="#2DE2E6">plot(story)</text><text x="66" y="184" font-family="'Courier New', Courier, monospace" font-size="10.5" fill="#FF8FA3">automate()</text><text x="66" y="200" font-family="'Courier New', Courier, monospace" font-size="10.5" fill="#F4E3C8">learn()</text><text x="66" y="216" font-family="'Courier New', Courier, monospace" font-size="10.5" fill="#FFD23F">git push</text><text x="66" y="232" font-family="'Courier New', Courier, monospace" font-size="10.5" fill="#2DE2E6">pin(idea)</text><text x="66" y="248" font-family="'Courier New', Courier, monospace" font-size="10.5" fill="#FF8FA3"># ship it</text><text x="66" y="264" font-family="'Courier New', Courier, monospace" font-size="10.5" fill="#F4E3C8">describe()</text><text x="66" y="280" font-family="'Courier New', Courier, monospace" font-size="10.5" fill="#FFD23F">ETL.run()</text><text x="66" y="296" font-family="'Courier New', Courier, monospace" font-size="10.5" fill="#2DE2E6">import art</text><text x="66" y="312" font-family="'Courier New', Courier, monospace" font-size="10.5" fill="#FF8FA3">clean(data)</text><text x="66" y="328" font-family="'Courier New', Courier, monospace" font-size="10.5" fill="#F4E3C8">SELECT *</text><text x="66" y="344" font-family="'Courier New', Courier, monospace" font-size="10.5" fill="#FFD23F">FROM data;</text><text x="66" y="360" font-family="'Courier New', Courier, monospace" font-size="10.5" fill="#2DE2E6">model.fit()</text><text x="66" y="376" font-family="'Courier New', Courier, monospace" font-size="10.5" fill="#FF8FA3">prec = .846</text><text x="66" y="392" font-family="'Courier New', Courier, monospace" font-size="10.5" fill="#F4E3C8">plot(story)</text><text x="66" y="408" font-family="'Courier New', Courier, monospace" font-size="10.5" fill="#FFD23F">automate()</text><text x="66" y="424" font-family="'Courier New', Courier, monospace" font-size="10.5" fill="#2DE2E6">learn()</text><text x="66" y="440" font-family="'Courier New', Courier, monospace" font-size="10.5" fill="#FF8FA3">git push</text><text x="66" y="456" font-family="'Courier New', Courier, monospace" font-size="10.5" fill="#F4E3C8">pin(idea)</text><text x="66" y="472" font-family="'Courier New', Courier, monospace" font-size="10.5" fill="#FFD23F"># ship it</text><text x="66" y="488" font-family="'Courier New', Courier, monospace" font-size="10.5" fill="#2DE2E6">describe()</text><text x="66" y="504" font-family="'Courier New', Courier, monospace" font-size="10.5" fill="#FF8FA3">ETL.run()</text><animateTransform attributeName="transform" type="translate" from="0 0" to="0 -224" dur="11s" repeatCount="indefinite"/></g></g><use xlink:href="#mq"/><g fill="none" stroke="#F4E3C8" stroke-width="9" stroke-linecap="round"><path d="M54 202 Q100 226 146 202 C170 214 150 242 172 266"/></g><g fill="none" stroke="#0B0B0F" stroke-width="9" stroke-dasharray="1 5" opacity=".7"><path d="M54 202 Q100 226 146 202 C170 214 150 242 172 266"><animate attributeName="stroke-dashoffset" from="0" to="-12" dur="2s" repeatCount="indefinite"/></path></g><g filter="url(#sh)"><line x1="72" y1="80" x2="46.8" y2="116.0" stroke="#cfd3dc" stroke-width="2" stroke-linecap="round"/><circle cx="72" cy="80" r="6" fill="#FFD23F"/><circle cx="70" cy="78" r="2" fill="#fff" opacity=".8"/></g><g filter="url(#sh)"><line x1="130" y1="84" x2="155.2" y2="120.0" stroke="#cfd3dc" stroke-width="2" stroke-linecap="round"/><circle cx="130" cy="84" r="6" fill="#FF8FA3"/><circle cx="128" cy="82" r="2" fill="#fff" opacity=".8"/></g></g><g><animateTransform attributeName="transform" type="rotate" values="-2.2 438 190;2.2 438 190;-2.2 438 190" dur="3.6s" begin="0.0s" repeatCount="indefinite"/><line x1="438" y1="190" x2="316.0" y2="168" stroke="#F4E3C8" stroke-width="1.5"/><circle cx="438" cy="190" r="4" fill="#D7263D" stroke="#F4E3C8"/><polygon points="229.6,150 316.0,150 330.0,168 316.0,186 229.6,186" fill="#D7263D" filter="url(#sh)"/><circle cx="316.0" cy="168" r="3.5" fill="#0B0B0F" stroke="#F4E3C8"/><text x="243.6" y="173" font-family="'Courier New', Courier, monospace" font-weight="700" font-size="15" fill="#F4E3C8">PYTHON</text></g><g><animateTransform attributeName="transform" type="rotate" values="-2.2 428 252;2.2 428 252;-2.2 428 252" dur="4.0s" begin="0.4s" repeatCount="indefinite"/><line x1="428" y1="252" x2="286.0" y2="233" stroke="#F4E3C8" stroke-width="1.5"/><circle cx="428" cy="252" r="4" fill="#D7263D" stroke="#F4E3C8"/><polygon points="171.39999999999998,215 286.0,215 300.0,233 286.0,251 171.39999999999998,251" fill="#FFD23F" filter="url(#sh)"/><circle cx="286.0" cy="233" r="3.5" fill="#0B0B0F" stroke="#F4E3C8"/><text x="185.39999999999998" y="238" font-family="'Courier New', Courier, monospace" font-weight="700" font-size="15" fill="#0B0B0F">SQL &amp; ETL</text></g><g><animateTransform attributeName="transform" type="rotate" values="-2.2 437 322;2.2 437 322;-2.2 437 322" dur="4.4s" begin="0.8s" repeatCount="indefinite"/><line x1="437" y1="322" x2="316.0" y2="318" stroke="#F4E3C8" stroke-width="1.5"/><circle cx="437" cy="322" r="4" fill="#D7263D" stroke="#F4E3C8"/><polygon points="135.6,300 316.0,300 330.0,318 316.0,336 135.6,336" fill="#F4E3C8" filter="url(#sh)"/><circle cx="316.0" cy="318" r="3.5" fill="#0B0B0F" stroke="#F4E3C8"/><text x="149.6" y="323" font-family="'Courier New', Courier, monospace" font-weight="700" font-size="15" fill="#0B0B0F">MACHINE LEARNING</text></g><g><animateTransform attributeName="transform" type="rotate" values="-2.2 436 402;2.2 436 402;-2.2 436 402" dur="4.800000000000001s" begin="1.2000000000000002s" repeatCount="indefinite"/><line x1="436" y1="402" x2="286.0" y2="403" stroke="#F4E3C8" stroke-width="1.5"/><circle cx="436" cy="402" r="4" fill="#D7263D" stroke="#F4E3C8"/><polygon points="124.4,385 286.0,385 300.0,403 286.0,421 124.4,421" fill="#FF8FA3" filter="url(#sh)"/><circle cx="286.0" cy="403" r="3.5" fill="#0B0B0F" stroke="#F4E3C8"/><text x="138.4" y="408" font-family="'Courier New', Courier, monospace" font-weight="700" font-size="15" fill="#0B0B0F">EDA &amp; FEATURES</text></g><g><animateTransform attributeName="transform" type="rotate" values="-2.2 563 190;2.2 563 190;-2.2 563 190" dur="3.8000000000000003s" begin="0.2s" repeatCount="indefinite"/><line x1="563" y1="190" x2="684" y2="158" stroke="#F4E3C8" stroke-width="1.5"/><circle cx="563" cy="190" r="4" fill="#D7263D" stroke="#F4E3C8"/><polygon points="684,140 789.2,140 789.2,176 684,176 670,158" fill="#FFD23F" filter="url(#sh)"/><circle cx="684" cy="158" r="3.5" fill="#0B0B0F" stroke="#F4E3C8"/><text x="700" y="163" font-family="'Courier New', Courier, monospace" font-weight="700" font-size="15" fill="#0B0B0F">POWER BI</text></g><g><animateTransform attributeName="transform" type="rotate" values="-2.2 573 252;2.2 573 252;-2.2 573 252" dur="4.3s" begin="0.7s" repeatCount="indefinite"/><line x1="573" y1="252" x2="710" y2="233" stroke="#F4E3C8" stroke-width="1.5"/><circle cx="573" cy="252" r="4" fill="#D7263D" stroke="#F4E3C8"/><polygon points="710,215 871.6,215 871.6,251 710,251 696,233" fill="#2DE2E6" filter="url(#sh)"/><circle cx="710" cy="233" r="3.5" fill="#0B0B0F" stroke="#F4E3C8"/><text x="726" y="238" font-family="'Courier New', Courier, monospace" font-weight="700" font-size="15" fill="#0B0B0F">n8n AUTOMATION</text></g><g><animateTransform attributeName="transform" type="rotate" values="-2.2 565 322;2.2 565 322;-2.2 565 322" dur="4.8s" begin="1.2s" repeatCount="indefinite"/><line x1="565" y1="322" x2="684" y2="308" stroke="#F4E3C8" stroke-width="1.5"/><circle cx="565" cy="322" r="4" fill="#D7263D" stroke="#F4E3C8"/><polygon points="684,290 883.2,290 883.2,326 684,326 670,308" fill="#D7263D" filter="url(#sh)"/><circle cx="684" cy="308" r="3.5" fill="#0B0B0F" stroke="#F4E3C8"/><text x="700" y="313" font-family="'Courier New', Courier, monospace" font-weight="700" font-size="15" fill="#F4E3C8">STREAMLIT + PLOTLY</text></g><g><animateTransform attributeName="transform" type="rotate" values="-2.2 565 402;2.2 565 402;-2.2 565 402" dur="5.3s" begin="1.7s" repeatCount="indefinite"/><line x1="565" y1="402" x2="710" y2="398" stroke="#F4E3C8" stroke-width="1.5"/><circle cx="565" cy="402" r="4" fill="#D7263D" stroke="#F4E3C8"/><polygon points="710,380 852.8,380 852.8,416 710,416 696,398" fill="#F4E3C8" filter="url(#sh)"/><circle cx="710" cy="398" r="3.5" fill="#0B0B0F" stroke="#F4E3C8"/><text x="726" y="403" font-family="'Courier New', Courier, monospace" font-weight="700" font-size="15" fill="#0B0B0F">UI/UX DESIGN</text></g><g transform="translate(70,520) rotate(-3)" filter="url(#sh)"><rect width="250" height="150" rx="6" fill="#F4E3C8"/><rect x="8" y="8" width="234" height="134" rx="3" fill="none" stroke="#0B0B0F" stroke-dasharray="4 3"/><text x="125" y="32" text-anchor="middle" font-family="Georgia, 'Times New Roman', serif" font-weight="700" font-size="14" fill="#0B0B0F" letter-spacing="2">CARE INSTRUCTIONS</text><text x="24" y="58" font-family="'Courier New', Courier, monospace" font-size="12.5" fill="#0B0B0F">+ feed with clean datasets</text><text x="24" y="80" font-family="'Courier New', Courier, monospace" font-size="12.5" fill="#0B0B0F">+ iron out the bugs</text><text x="24" y="102" font-family="'Courier New', Courier, monospace" font-size="12.5" fill="#0B0B0F">+ hand-stitch the details</text><text x="24" y="124" font-family="'Courier New', Courier, monospace" font-size="12.5" fill="#0B0B0F">- never underfit</text></g><text x="700" y="590" font-family="Georgia, 'Times New Roman', serif" font-style="italic" font-size="22" fill="#F4E3C8">measure twice,</text><text x="700" y="618" font-family="Georgia, 'Times New Roman', serif" font-style="italic" font-size="22" fill="#F4E3C8">model once.</text><g transform="translate(900,120)"><path d="M0,-10 Q1.5,-1.5 10,0 Q1.5,1.5 0,10 Q-1.5,1.5 -10,0 Q-1.5,-1.5 0,-10Z" fill="#FFD23F"><animateTransform attributeName="transform" type="scale" values="0.26;1.3;0.26" dur="3s" begin="0s" repeatCount="indefinite"/></path></g><g transform="translate(120,620)"><path d="M0,-10 Q1.5,-1.5 10,0 Q1.5,1.5 0,10 Q-1.5,1.5 -10,0 Q-1.5,-1.5 0,-10Z" fill="#2DE2E6"><animateTransform attributeName="transform" type="scale" values="0.2;1;0.2" dur="4s" begin="1s" repeatCount="indefinite"/></path></g><g transform="translate(930,520)"><path d="M0,-10 Q1.5,-1.5 10,0 Q1.5,1.5 0,10 Q-1.5,1.5 -10,0 Q-1.5,-1.5 0,-10Z" fill="#FF8FA3"><animateTransform attributeName="transform" type="scale" values="0.2;1;0.2" dur="3.5s" begin="0.5s" repeatCount="indefinite"/></path></g><g transform="translate(60,420)"><path d="M0,-10 Q1.5,-1.5 10,0 Q1.5,1.5 0,10 Q-1.5,1.5 -10,0 Q-1.5,-1.5 0,-10Z" fill="#FFD23F"><animateTransform attributeName="transform" type="scale" values="0.16000000000000003;0.8;0.16000000000000003" dur="4s" begin="2s" repeatCount="indefinite"/></path></g>
</svg>