<svg xmlns="http://www.w3.org/2000/svg" xmlns:xlink="http://www.w3.org/1999/xlink" viewBox="0 0 1000 420" width="1000" height="420">
<defs><pattern id="grid" width="36" height="36" patternUnits="userSpaceOnUse"><path d="M36 0H0V36" fill="none" stroke="#F4E3C8" stroke-opacity=".07"/></pattern><filter id="sh" x="-30%" y="-30%" width="160%" height="170%"><feDropShadow dx="0" dy="4" stdDeviation="4" flood-color="#000" flood-opacity=".6"/></filter></defs>
<rect width="1000" height="420" rx="24" fill="#0B0B0F"/><rect width="1000" height="420" rx="24" fill="url(#grid)"/><path d="M30 40 H970" stroke="#F4E3C8" stroke-width="5" stroke-linecap="round"/><circle cx="30" cy="40" r="7" fill="#D7263D"/><circle cx="970" cy="40" r="7" fill="#D7263D"/><g><animateTransform attributeName="transform" type="rotate" values="-1.6 190 40;1.6 190 40;-1.6 190 40" dur="5.475s" begin="0.6333333333333333s" repeatCount="indefinite"/><path d="M190 44 C190 30 203 24 203 15 C203 6 190 6 190 16" fill="none" stroke="#F4E3C8" stroke-width="3" transform="translate(0 20)"/><path d="M190 62 L114 100 Q102 108 118 112 H262 Q278 108 266 100 Z" fill="none" stroke="#F4E3C8" stroke-width="3" stroke-linejoin="round"/><rect x="44" y="124" width="292" height="276" rx="16" fill="#17141A" stroke="#D7263D" stroke-width="2.5" filter="url(#sh)"/><rect x="44" y="124" width="292" height="12" rx="6" fill="#D7263D"/><text x="66" y="176" font-family="Georgia, 'Times New Roman', serif" font-style="italic" font-size="29" fill="#F4E3C8">Creative Lead</text><text x="66" y="206" font-family="'Courier New', Courier, monospace" font-weight="700" font-size="14" fill="#D7263D">Nimbus</text><text x="66" y="228" font-family="'Courier New', Courier, monospace" font-size="12" fill="#F4E3C8" fill-opacity=".7">AUG 2025 - NOW</text><path d="M66 244 H314" stroke="#D7263D" stroke-dasharray="4 5"/><text x="66" y="270" font-family="Helvetica, Arial, sans-serif" font-size="13.5" fill="#F4E3C8">&#9656; Branding, digital products &amp;</text><text x="66" y="289" font-family="Helvetica, Arial, sans-serif" font-size="13.5" fill="#F4E3C8">&#160;&#160;business solutions</text><text x="66" y="314" font-family="Helvetica, Arial, sans-serif" font-size="13.5" fill="#F4E3C8">&#9656; n8n workflows for marketing</text><text x="66" y="333" font-family="Helvetica, Arial, sans-serif" font-size="13.5" fill="#F4E3C8">&#160;&#160;automation</text><text x="66" y="358" font-family="Helvetica, Arial, sans-serif" font-size="13.5" fill="#F4E3C8">&#9656; Dashboards &amp; process optimisation</text></g><g><animateTransform attributeName="transform" type="rotate" values="-1.6 500 40;1.6 500 40;-1.6 500 40" dur="6.25s" begin="1.6666666666666667s" repeatCount="indefinite"/><path d="M500 44 C500 30 513 24 513 15 C513 6 500 6 500 16" fill="none" stroke="#F4E3C8" stroke-width="3" transform="translate(0 20)"/><path d="M500 62 L424 100 Q412 108 428 112 H572 Q588 108 576 100 Z" fill="none" stroke="#F4E3C8" stroke-width="3" stroke-linejoin="round"/><rect x="354" y="124" width="292" height="276" rx="16" fill="#17141A" stroke="#FFD23F" stroke-width="2.5" filter="url(#sh)"/><rect x="354" y="124" width="292" height="12" rx="6" fill="#FFD23F"/><text x="376" y="176" font-family="Georgia, 'Times New Roman', serif" font-style="italic" font-size="29" fill="#F4E3C8">Data Analysis</text><text x="376" y="208" font-family="Georgia, 'Times New Roman', serif" font-style="italic" font-size="29" fill="#F4E3C8">Contributor</text><text x="376" y="238" font-family="'Courier New', Courier, monospace" font-weight="700" font-size="14" fill="#FFD23F">Nimbus</text><text x="376" y="260" font-family="'Courier New', Courier, monospace" font-size="12" fill="#F4E3C8" fill-opacity=".7">AUG 2024 - NOW</text><path d="M376 276 H624" stroke="#FFD23F" stroke-dasharray="4 5"/><text x="376" y="302" font-family="Helvetica, Arial, sans-serif" font-size="13.5" fill="#F4E3C8">&#9656; Power BI: Sales Trends, Inventory,</text><text x="376" y="321" font-family="Helvetica, Arial, sans-serif" font-size="13.5" fill="#F4E3C8">&#160;&#160;Customer Flow</text><text x="376" y="346" font-family="Helvetica, Arial, sans-serif" font-size="13.5" fill="#F4E3C8">&#9656; Automated reporting workflows</text><text x="376" y="371" font-family="Helvetica, Arial, sans-serif" font-size="13.5" fill="#F4E3C8">&#9656; Insights for business stakeholders</text></g><g><animateTransform attributeName="transform" type="rotate" values="-1.6 810 40;1.6 810 40;-1.6 810 40" dur="7.025s" begin="2.7s" repeatCount="indefinite"/><path d="M810 44 C810 30 823 24 823 15 C823 6 810 6 810 16" fill="none" stroke="#F4E3C8" stroke-width="3" transform="translate(0 20)"/><path d="M810 62 L734 100 Q722 108 738 112 H882 Q898 108 886 100 Z" fill="none" stroke="#F4E3C8" stroke-width="3" stroke-linejoin="round"/><rect x="664" y="124" width="292" height="276" rx="16" fill="#17141A" stroke="#FF8FA3" stroke-width="2.5" filter="url(#sh)"/><rect x="664" y="124" width="292" height="12" rx="6" fill="#FF8FA3"/><text x="686" y="176" font-family="Georgia, 'Times New Roman', serif" font-style="italic" font-size="29" fill="#F4E3C8">Senior Designer</text><text x="686" y="206" font-family="'Courier New', Courier, monospace" font-weight="700" font-size="14" fill="#FF8FA3">Kraft Email Marketing Agency</text><text x="686" y="228" font-family="'Courier New', Courier, monospace" font-size="12" fill="#F4E3C8" fill-opacity=".7">JAN 2025 - AUG 2025</text><path d="M686 244 H934" stroke="#FF8FA3" stroke-dasharray="4 5"/><text x="686" y="270" font-family="Helvetica, Arial, sans-serif" font-size="13.5" fill="#F4E3C8">&#9656; Responsive email campaigns &amp;</text><text x="686" y="289" font-family="Helvetica, Arial, sans-serif" font-size="13.5" fill="#F4E3C8">&#160;&#160;marketing assets</text><text x="686" y="314" font-family="Helvetica, Arial, sans-serif" font-size="13.5" fill="#F4E3C8">&#9656; Worked with international clients</text><text x="686" y="333" font-family="Helvetica, Arial, sans-serif" font-size="13.5" fill="#F4E3C8">&#160;&#160;&amp; cross-functional teams</text></g><g transform="translate(970,390)"><path d="M0,-10 Q1.5,-1.5 10,0 Q1.5,1.5 0,10 Q-1.5,1.5 -10,0 Q-1.5,-1.5 0,-10Z" fill="#FFD23F"><animateTransform attributeName="transform" type="scale" values="0.2;1;0.2" dur="3s" begin="0s" repeatCount="indefinite"/></path></g><g transform="translate(40,390)"><path d="M0,-10 Q1.5,-1.5 10,0 Q1.5,1.5 0,10 Q-1.5,1.5 -10,0 Q-1.5,-1.5 0,-10Z" fill="#2DE2E6"><animateTransform attributeName="transform" type="scale" values="0.18000000000000002;0.9;0.18000000000000002" dur="4s" begin="1s" repeatCount="indefinite"/></path></g>
</svg>